<svg xmlns="http://www.w3.org/2000/svg" xmlns:xlink="http://www.w3.org/1999/xlink"><symbol id="cart" viewBox="0 0 20 18">
<path d="M14 5C14 6.06087 13.5786 7.07828 12.8284 7.82843C12.0783 8.57857 11.0609 9 10 9C8.93913 9 7.92172 8.57857 7.17157 7.82843C6.42143 7.07828 6 6.06087 6 5M1 1H19V17H1V1Z" stroke="" stroke-width="2" stroke-linecap="round" stroke-linejoin="round"/>
</symbol><symbol id="fb-mobile" viewBox="0 0 12 21">
<path d="M8 12.075H10.8571L12 7.875H8V5.775C8 4.6935 8 3.675 10.2857 3.675H12V0.147C11.6274 0.10185 10.2206 0 8.73486 0C5.632 0 3.42857 1.73985 3.42857 4.935V7.875H0V12.075H3.42857V21H8V12.075Z" fill="white"/>
</symbol><symbol id="fb" viewBox="0 0 8 15">
<path d="M5.33333 8.625H7.2381L8 5.625H5.33333V4.125C5.33333 3.3525 5.33333 2.625 6.85714 2.625H8V0.105C7.75162 0.0727501 6.81371 0 5.82324 0C3.75467 0 2.28571 1.24275 2.28571 3.525V5.625H0V8.625H2.28571V15H5.33333V8.625Z" fill="white"/>
</symbol><symbol id="inst-mobile" viewBox="0 0 20 21">
<path d="M10 0C12.717 0 13.056 0.0104999 14.122 0.0629999C15.187 0.1155 15.912 0.29085 16.55 0.55125C17.21 0.81795 17.766 1.17915 18.322 1.7619C18.8305 2.28679 19.224 2.92172 19.475 3.6225C19.722 4.29135 19.89 5.05365 19.94 6.1719C19.987 7.2912 20 7.64715 20 10.5C20 13.3528 19.99 13.7088 19.94 14.8281C19.89 15.9463 19.722 16.7076 19.475 17.3775C19.2247 18.0787 18.8311 18.7137 18.322 19.2381C17.822 19.7718 17.2173 20.1849 16.55 20.4487C15.913 20.7081 15.187 20.8845 14.122 20.937C13.056 20.9863 12.717 21 10 21C7.283 21 6.944 20.9895 5.878 20.937C4.813 20.8845 4.088 20.7081 3.45 20.4487C2.78233 20.1857 2.17753 19.7725 1.678 19.2381C1.16941 18.7133 0.775931 18.0783 0.525 17.3775C0.277 16.7086 0.11 15.9463 0.0599999 14.8281C0.0129999 13.7088 0 13.3528 0 10.5C0 7.64715 0.00999994 7.2912 0.0599999 6.1719C0.11 5.0526 0.277 4.2924 0.525 3.6225C0.775236 2.92129 1.1688 2.28619 1.678 1.7619C2.17767 1.22769 2.78243 0.814516 3.45 0.55125C4.088 0.29085 4.812 0.1155 5.878 0.0629999C6.944 0.0136499 7.283 0 10 0ZM10 5.25C8.67392 5.25 7.40215 5.80312 6.46447 6.78769C5.52678 7.77225 5 9.10761 5 10.5C5 11.8924 5.52678 13.2277 6.46447 14.2123C7.40215 15.1969 8.67392 15.75 10 15.75C11.3261 15.75 12.5979 15.1969 13.5355 14.2123C14.4732 13.2277 15 11.8924 15 10.5C15 9.10761 14.4732 7.77225 13.5355 6.78769C12.5979 5.80312 11.3261 5.25 10 5.25ZM16.5 4.9875C16.5 4.6394 16.3683 4.30556 16.1339 4.05942C15.8995 3.81328 15.5815 3.675 15.25 3.675C14.9185 3.675 14.6005 3.81328 14.3661 4.05942C14.1317 4.30556 14 4.6394 14 4.9875C14 5.3356 14.1317 5.66944 14.3661 5.91558C14.6005 6.16172 14.9185 6.3 15.25 6.3C15.5815 6.3 15.8995 6.16172 16.1339 5.91558C16.3683 5.66944 16.5 5.3356 16.5 4.9875ZM10 7.35C10.7956 7.35 11.5587 7.68187 12.1213 8.27261C12.6839 8.86335 13 9.66457 13 10.5C13 11.3354 12.6839 12.1366 12.1213 12.7274C11.5587 13.3181 10.7956 13.65 10 13.65C9.20435 13.65 8.44129 13.3181 7.87868 12.7274C7.31607 12.1366 7 11.3354 7 10.5C7 9.66457 7.31607 8.86335 7.87868 8.27261C8.44129 7.68187 9.20435 7.35 10 7.35Z" fill="white"/>
</symbol><symbol id="inst" viewBox="0 0 15 15">
<path d="M7.5 0C9.53775 0 9.792 0.00749996 10.5915 0.045C11.3903 0.0825 11.934 0.20775 12.4125 0.39375C12.9075 0.58425 13.3245 0.84225 13.7415 1.2585C14.1229 1.63342 14.418 2.08694 14.6063 2.5875C14.7915 3.06525 14.9175 3.60975 14.955 4.4085C14.9903 5.208 15 5.46225 15 7.5C15 9.53775 14.9925 9.792 14.955 10.5915C14.9175 11.3903 14.7915 11.934 14.6063 12.4125C14.4185 12.9133 14.1233 13.367 13.7415 13.7415C13.3665 14.1227 12.913 14.4178 12.4125 14.6063C11.9347 14.7915 11.3903 14.9175 10.5915 14.955C9.792 14.9903 9.53775 15 7.5 15C5.46225 15 5.208 14.9925 4.4085 14.955C3.60975 14.9175 3.066 14.7915 2.5875 14.6063C2.08674 14.4184 1.63315 14.1232 1.2585 13.7415C0.877055 13.3666 0.581949 12.9131 0.39375 12.4125C0.20775 11.9347 0.0825 11.3903 0.045 10.5915C0.00974996 9.792 0 9.53775 0 7.5C0 5.46225 0.00749996 5.208 0.045 4.4085C0.0825 3.609 0.20775 3.066 0.39375 2.5875C0.581427 2.08663 0.876603 1.63299 1.2585 1.2585C1.63325 0.876923 2.08682 0.581797 2.5875 0.39375C3.066 0.20775 3.609 0.0825 4.4085 0.045C5.208 0.00974996 5.46225 0 7.5 0ZM7.5 3.75C6.50544 3.75 5.55161 4.14509 4.84835 4.84835C4.14509 5.55161 3.75 6.50544 3.75 7.5C3.75 8.49456 4.14509 9.44839 4.84835 10.1517C5.55161 10.8549 6.50544 11.25 7.5 11.25C8.49456 11.25 9.44839 10.8549 10.1517 10.1517C10.8549 9.44839 11.25 8.49456 11.25 7.5C11.25 6.50544 10.8549 5.55161 10.1517 4.84835C9.44839 4.14509 8.49456 3.75 7.5 3.75ZM12.375 3.5625C12.375 3.31386 12.2762 3.0754 12.1004 2.89959C11.9246 2.72377 11.6861 2.625 11.4375 2.625C11.1889 2.625 10.9504 2.72377 10.7746 2.89959C10.5988 3.0754 10.5 3.31386 10.5 3.5625C10.5 3.81114 10.5988 4.0496 10.7746 4.22541C10.9504 4.40123 11.1889 4.5 11.4375 4.5C11.6861 4.5 11.9246 4.40123 12.1004 4.22541C12.2762 4.0496 12.375 3.81114 12.375 3.5625ZM7.5 5.25C8.09674 5.25 8.66903 5.48705 9.09099 5.90901C9.51295 6.33097 9.75 6.90326 9.75 7.5C9.75 8.09674 9.51295 8.66903 9.09099 9.09099C8.66903 9.51295 8.09674 9.75 7.5 9.75C6.90326 9.75 6.33097 9.51295 5.90901 9.09099C5.48705 8.66903 5.25 8.09674 5.25 7.5C5.25 6.90326 5.48705 6.33097 5.90901 5.90901C6.33097 5.48705 6.90326 5.25 7.5 5.25Z" fill="white"/>
</symbol><symbol id="logo-mobile" viewBox="0 0 52 52">
<path fill-rule="evenodd" clip-rule="evenodd" d="M7.97819 7.97262L26 0.507744L44.0218 7.97262L51.489 26L44.0218 44.0274L26 51.4923L7.97819 44.0274L0.511004 26L7.97819 7.97262ZM26 0L44.3848 7.61522L52 26L44.3848 44.3848L26 52L7.61522 44.3848L0 26L7.61522 7.61522L26 0ZM22.5075 20.8131C22.0196 20.7119 21.4183 20.6613 20.7036 20.6613C19.535 20.6613 18.4799 20.8862 17.5382 21.3359C16.6079 21.7857 15.8761 22.4209 15.3428 23.2417C14.8096 24.0512 14.543 24.9844 14.543 26.0412C14.543 27.1318 14.8039 28.0987 15.3258 28.942C15.8477 29.7852 16.5738 30.443 17.5041 30.9152C18.4458 31.3761 19.5123 31.6066 20.7036 31.6066C21.3729 31.6066 21.9629 31.5504 22.4735 31.438C22.9953 31.3256 23.5513 31.1288 24.1412 30.8477C24.2093 30.8027 24.2547 30.7634 24.2774 30.7297C24.3001 30.6959 24.3171 30.6116 24.3284 30.4767L24.4986 28.6216C24.4986 28.5878 24.4589 28.571 24.3795 28.571C24.3228 28.571 24.2944 28.5822 24.2944 28.6047C23.9881 29.5266 23.5456 30.2125 22.967 30.6622C22.3884 31.1119 21.6339 31.3368 20.7036 31.3368C19.83 31.3368 19.0188 31.1007 18.27 30.6285C17.5325 30.1563 16.9425 29.5154 16.5001 28.7059C16.0689 27.8851 15.8534 26.9857 15.8534 26.0075C15.8534 24.9844 16.0519 24.0905 16.449 23.326C16.8461 22.5502 17.4077 21.9543 18.1338 21.5383C18.8599 21.1223 19.6995 20.9143 20.6525 20.9143C22.4678 20.9143 23.6364 21.8531 24.1583 23.7307C24.1696 23.7645 24.2036 23.7813 24.2604 23.7813C24.3284 23.7701 24.3625 23.7476 24.3625 23.7139L24.1583 21.707C24.1356 21.572 24.1185 21.4877 24.1072 21.454C24.0959 21.4203 24.0505 21.3809 23.9711 21.3359C23.4832 21.0886 22.9953 20.9143 22.5075 20.8131ZM37.714 31.2862C37.714 31.2187 37.697 31.185 37.663 31.185C37.2318 31.185 36.9142 31.1569 36.71 31.1007C36.5057 31.0445 36.3639 30.9377 36.2845 30.7803C36.2164 30.6116 36.1824 30.3586 36.1824 30.0213V22.2129C36.1824 21.8756 36.2164 21.6283 36.2845 21.4708C36.3639 21.3134 36.5057 21.2066 36.71 21.1504C36.9142 21.083 37.2318 21.0492 37.663 21.0492C37.697 21.0492 37.714 21.0155 37.714 20.948C37.714 20.8806 37.697 20.8468 37.663 20.8468L36.8291 20.8637C36.3526 20.8862 35.9612 20.8974 35.6548 20.8974C35.3145 20.8974 34.8947 20.8862 34.3955 20.8637L33.5956 20.8468C33.5616 20.8468 33.5446 20.8806 33.5446 20.948C33.5446 21.0155 33.5616 21.0492 33.5956 21.0492C34.0381 21.0492 34.3615 21.083 34.5657 21.1504C34.7699 21.2179 34.906 21.3359 34.9741 21.5046C35.0535 21.662 35.0932 21.9093 35.0932 22.2466V25.7208H28.5583V22.2466C28.5583 21.9093 28.5923 21.662 28.6604 21.5046C28.7398 21.3359 28.8816 21.2179 29.0858 21.1504C29.3014 21.083 29.6247 21.0492 30.0559 21.0492C30.0785 21.0492 30.0899 21.0155 30.0899 20.948C30.0899 20.8806 30.0785 20.8468 30.0559 20.8468L29.239 20.8637C28.7398 20.8862 28.3257 20.8974 27.9967 20.8974C27.713 20.8974 27.3329 20.8862 26.8564 20.8637L25.9885 20.8468C25.9658 20.8468 25.9545 20.8806 25.9545 20.948C25.9545 21.0155 25.9658 21.0492 25.9885 21.0492C26.4196 21.0492 26.7373 21.083 26.9415 21.1504C27.1457 21.2066 27.2819 21.3134 27.35 21.4708C27.4294 21.6283 27.4691 21.8756 27.4691 22.2129V30.0213C27.4691 30.3586 27.4294 30.6116 27.35 30.7803C27.2819 30.9377 27.1401 31.0445 26.9245 31.1007C26.7203 31.1569 26.4026 31.185 25.9715 31.185C25.9488 31.185 25.9375 31.2187 25.9375 31.2862C25.9375 31.3537 25.9488 31.3874 25.9715 31.3874C26.3345 31.3874 26.6182 31.3818 26.8224 31.3705L27.9967 31.3537L29.222 31.3705C29.4262 31.3818 29.7041 31.3874 30.0559 31.3874C30.0785 31.3874 30.0899 31.3537 30.0899 31.2862C30.0899 31.2187 30.0785 31.185 30.0559 31.185C29.6134 31.185 29.29 31.1569 29.0858 31.1007C28.8816 31.0445 28.7398 30.9377 28.6604 30.7803C28.5923 30.6116 28.5583 30.3586 28.5583 30.0213V26.075H35.0932V30.0213C35.0932 30.3586 35.0535 30.6116 34.9741 30.7803C34.906 30.9377 34.7699 31.0445 34.5657 31.1007C34.3615 31.1569 34.0381 31.185 33.5956 31.185C33.5616 31.185 33.5446 31.2187 33.5446 31.2862C33.5446 31.3537 33.5616 31.3874 33.5956 31.3874C33.936 31.3874 34.2026 31.3818 34.3955 31.3705L35.6548 31.3537L36.8291 31.3705C37.0333 31.3818 37.3113 31.3874 37.663 31.3874C37.697 31.3874 37.714 31.3537 37.714 31.2862Z" fill="#A87B62"/>
</symbol><symbol id="logo" viewBox="0 0 66 66">
<path fill-rule="evenodd" clip-rule="evenodd" d="M10.1262 10.1191L33 0.644445L55.8738 10.1191L65.3514 33L55.8738 55.8809L33 65.3556L10.1262 55.8809L0.648582 33L10.1262 10.1191ZM33 0L56.3345 9.66548L66 33L56.3345 56.3345L33 66L9.66548 56.3345L0 33L9.66548 9.66548L33 0ZM28.5672 26.4166C27.948 26.2882 27.1848 26.224 26.2776 26.224C24.7944 26.224 23.4552 26.5094 22.26 27.0802C21.0792 27.651 20.1504 28.4573 19.4736 29.499C18.7968 30.5265 18.4584 31.7109 18.4584 33.0523C18.4584 34.4365 18.7896 35.6638 19.452 36.7341C20.1144 37.8043 21.036 38.6391 22.2168 39.2385C23.412 39.8236 24.7656 40.1161 26.2776 40.1161C27.1272 40.1161 27.876 40.0448 28.524 39.9021C29.1864 39.7593 29.892 39.5096 30.6408 39.1529C30.7272 39.0958 30.7848 39.0458 30.8136 39.003C30.8424 38.9602 30.864 38.8532 30.8784 38.6819L31.0944 36.3274C31.0944 36.2845 31.044 36.2631 30.9432 36.2631C30.8712 36.2631 30.8352 36.2774 30.8352 36.3059C30.4464 37.4761 29.8848 38.3466 29.1504 38.9174C28.416 39.4882 27.4584 39.7736 26.2776 39.7736C25.1688 39.7736 24.1392 39.4739 23.1888 38.8746C22.2528 38.2752 21.504 37.4618 20.9424 36.4344C20.3952 35.3926 20.1216 34.251 20.1216 33.0095C20.1216 31.7109 20.3736 30.5764 20.8776 29.6061C21.3816 28.6214 22.0944 27.8651 23.016 27.3371C23.9376 26.8091 25.0032 26.5451 26.2128 26.5451C28.5168 26.5451 30 27.7366 30.6624 30.1198C30.6768 30.1626 30.72 30.184 30.792 30.184C30.8784 30.1697 30.9216 30.1412 30.9216 30.0984L30.6624 27.5511C30.6336 27.3799 30.612 27.2729 30.5976 27.2301C30.5832 27.1872 30.5256 27.1373 30.4248 27.0802C29.8056 26.7663 29.1864 26.5451 28.5672 26.4166ZM47.8678 39.7094C47.8678 39.6238 47.8462 39.581 47.803 39.581C47.2558 39.581 46.8526 39.5453 46.5934 39.4739C46.3342 39.4026 46.1542 39.267 46.0534 39.0672C45.967 38.8532 45.9238 38.5321 45.9238 38.104V28.1933C45.9238 27.7652 45.967 27.4512 46.0534 27.2515C46.1542 27.0517 46.3342 26.9161 46.5934 26.8448C46.8526 26.7591 47.2558 26.7163 47.803 26.7163C47.8462 26.7163 47.8678 26.6735 47.8678 26.5879C47.8678 26.5023 47.8462 26.4595 47.803 26.4595L46.7446 26.4809C46.1398 26.5094 45.643 26.5237 45.2542 26.5237C44.8222 26.5237 44.2894 26.5094 43.6558 26.4809L42.6406 26.4595C42.5974 26.4595 42.5758 26.5023 42.5758 26.5879C42.5758 26.6735 42.5974 26.7163 42.6406 26.7163C43.2022 26.7163 43.6126 26.7591 43.8718 26.8448C44.131 26.9304 44.3038 27.0802 44.3902 27.2943C44.491 27.4941 44.5414 27.808 44.5414 28.2361V32.6456H36.247V28.2361C36.247 27.808 36.2902 27.4941 36.3766 27.2943C36.4774 27.0802 36.6574 26.9304 36.9166 26.8448C37.1902 26.7591 37.6006 26.7163 38.1478 26.7163C38.1766 26.7163 38.191 26.6735 38.191 26.5879C38.191 26.5023 38.1766 26.4595 38.1478 26.4595L37.111 26.4809C36.4774 26.5094 35.9518 26.5237 35.5342 26.5237C35.1742 26.5237 34.6918 26.5094 34.087 26.4809L32.9854 26.4595C32.9566 26.4595 32.9422 26.5023 32.9422 26.5879C32.9422 26.6735 32.9566 26.7163 32.9854 26.7163C33.5326 26.7163 33.9358 26.7591 34.195 26.8448C34.4542 26.9161 34.627 27.0517 34.7134 27.2515C34.8142 27.4512 34.8646 27.7652 34.8646 28.1933V38.104C34.8646 38.5321 34.8142 38.8532 34.7134 39.0672C34.627 39.267 34.447 39.4026 34.1734 39.4739C33.9142 39.5453 33.511 39.581 32.9638 39.581C32.935 39.581 32.9206 39.6238 32.9206 39.7094C32.9206 39.795 32.935 39.8378 32.9638 39.8378C33.4246 39.8378 33.7846 39.8307 34.0438 39.8164L35.5342 39.795L37.0894 39.8164C37.3486 39.8307 37.7014 39.8378 38.1478 39.8378C38.1766 39.8378 38.191 39.795 38.191 39.7094C38.191 39.6238 38.1766 39.581 38.1478 39.581C37.5862 39.581 37.1758 39.5453 36.9166 39.4739C36.6574 39.4026 36.4774 39.267 36.3766 39.0672C36.2902 38.8532 36.247 38.5321 36.247 38.104V33.0951H44.5414V38.104C44.5414 38.5321 44.491 38.8532 44.3902 39.0672C44.3038 39.267 44.131 39.4026 43.8718 39.4739C43.6126 39.5453 43.2022 39.581 42.6406 39.581C42.5974 39.581 42.5758 39.6238 42.5758 39.7094C42.5758 39.795 42.5974 39.8378 42.6406 39.8378C43.0726 39.8378 43.411 39.8307 43.6558 39.8164L45.2542 39.795L46.7446 39.8164C47.0038 39.8307 47.3566 39.8378 47.803 39.8378C47.8462 39.8378 47.8678 39.795 47.8678 39.7094Z"/>
</symbol><symbol id="print-mobile" viewBox="0 0 20 21">
<path d="M11.3644 0.0980097C8.97202 -0.247586 6.54139 0.327484 4.52129 1.71703C2.5012 3.10658 1.02807 5.21676 0.373929 7.65792C-0.280213 10.0991 -0.0711909 12.7064 0.962399 14.9983C1.99599 17.2902 3.78434 19.1121 5.99723 20.1274C5.93739 19.3208 5.99231 18.5094 6.1602 17.7198C6.34517 16.8389 7.456 11.9838 7.456 11.9838C7.2348 11.4631 7.12425 10.898 7.13205 10.3279C7.13205 8.76872 7.98891 7.60535 9.05474 7.60535C9.24622 7.60242 9.43605 7.64283 9.61133 7.72382C9.7866 7.80481 9.94322 7.92449 10.0705 8.07471C10.1978 8.22494 10.2928 8.40219 10.3491 8.59442C10.4053 8.78664 10.4215 8.98934 10.3965 9.18871C10.3965 10.1337 9.81862 11.5638 9.51667 12.9056C9.45699 13.1517 9.45321 13.4091 9.50561 13.657C9.55802 13.9049 9.66515 14.1364 9.81838 14.3329C9.9716 14.5294 10.1666 14.6853 10.3878 14.7881C10.6089 14.8909 10.8499 14.9377 11.0914 14.9247C12.9891 14.9247 14.2609 12.3722 14.2609 9.35881C14.2609 7.04886 12.8041 5.3185 10.1186 5.3185C9.47605 5.29228 8.83516 5.40347 8.2348 5.64531C7.63445 5.88715 7.08717 6.2546 6.62618 6.72535C6.16519 7.1961 5.80012 7.76033 5.55312 8.38378C5.30613 9.00722 5.18237 9.67688 5.18936 10.3521C5.16073 11.1011 5.39083 11.8357 5.83726 12.4205C5.92067 12.4859 5.98159 12.578 6.0108 12.683C6.04002 12.7879 6.03596 12.8999 5.99923 13.0022C5.95324 13.1954 5.83726 13.6564 5.79126 13.8254C5.7817 13.8827 5.75944 13.9369 5.7263 13.9836C5.69315 14.0302 5.65003 14.068 5.60042 14.094C5.55081 14.1199 5.49609 14.1333 5.44067 14.1329C5.38525 14.1326 5.33068 14.1186 5.28134 14.0921C3.89757 13.5104 3.24567 11.9113 3.24567 10.0854C3.24567 7.09611 5.62929 3.51779 10.3985 3.51779C14.1939 3.51779 16.7175 6.43357 16.7175 9.55201C16.7175 13.6564 14.5409 16.7423 11.3244 16.7423C10.8436 16.7584 10.3668 16.647 9.93793 16.4183C9.50907 16.1896 9.14203 15.8511 8.87077 15.434C8.87077 15.434 8.29286 17.8657 8.17888 18.3256C7.94621 19.1201 7.60288 19.8741 7.16004 20.5631C8.0829 20.8571 9.04174 21.0041 10.0056 20.9999C11.319 21.001 12.6196 20.7301 13.8331 20.2025C15.0467 19.675 16.1492 18.9013 17.0775 17.9257C18.0059 16.9501 18.7419 15.7918 19.2434 14.517C19.7448 13.2423 20.002 11.8762 20 10.497C19.9987 7.96129 19.1239 5.51169 17.537 3.6005C15.9501 1.68932 13.7583 0.44562 11.3664 0.0990596L11.3644 0.0980097Z" fill="white"/>
</symbol><symbol id="print" viewBox="0 0 16 15">
<path d="M8.52464 0.0700085C6.73009 -0.176851 4.90683 0.233922 3.39151 1.22648C1.8762 2.21903 0.771177 3.72633 0.280492 5.47006C-0.210193 7.21378 -0.0534017 9.07616 0.721915 10.7133C1.49723 12.3504 2.83871 13.6518 4.49864 14.377C4.45375 13.8009 4.49496 13.2213 4.62089 12.6573C4.75964 12.028 5.59289 8.56001 5.59289 8.56001C5.42697 8.18808 5.34405 7.78448 5.34989 7.37726C5.34989 6.26351 5.99264 5.43251 6.79214 5.43251C6.93577 5.43042 7.07817 5.45928 7.20965 5.51713C7.34113 5.57498 7.45861 5.66047 7.5541 5.76778C7.6496 5.87508 7.72087 6.00169 7.76306 6.139C7.80526 6.27631 7.81739 6.42109 7.79864 6.56351C7.79864 7.23851 7.36514 8.26001 7.13864 9.21851C7.09388 9.39429 7.09104 9.57814 7.13035 9.75522C7.16966 9.93231 7.25002 10.0977 7.36496 10.238C7.4799 10.3783 7.6262 10.4897 7.79207 10.5631C7.95793 10.6366 8.13873 10.67 8.31989 10.6608C9.74339 10.6608 10.6974 8.83751 10.6974 6.68501C10.6974 5.03501 9.60464 3.79901 7.59014 3.79901C7.10817 3.78028 6.62743 3.8597 6.17709 4.03245C5.72676 4.2052 5.31623 4.46767 4.97043 4.80392C4.62463 5.14018 4.35078 5.54321 4.16551 5.98854C3.98023 6.43387 3.8874 6.9122 3.89264 7.39451C3.87117 7.9295 4.04377 8.45423 4.37864 8.87201C4.44122 8.91872 4.48691 8.98451 4.50882 9.05946C4.53074 9.1344 4.52769 9.21444 4.50014 9.28751C4.46564 9.42551 4.37864 9.75476 4.34414 9.87551C4.33697 9.91646 4.32027 9.95515 4.29541 9.98847C4.27054 10.0218 4.2382 10.0488 4.20099 10.0673C4.16378 10.0859 4.12273 10.0954 4.08116 10.0952C4.03959 10.0949 3.99865 10.085 3.96164 10.066C2.92364 9.65051 2.43464 8.50826 2.43464 7.20401C2.43464 5.06876 4.22264 2.51276 7.80014 2.51276C10.6471 2.51276 12.5401 4.59551 12.5401 6.82301C12.5401 9.75476 10.9074 11.959 8.49464 11.959C8.13403 11.9705 7.77634 11.891 7.45464 11.7276C7.13294 11.5643 6.85762 11.3224 6.65414 11.0245C6.65414 11.0245 6.22064 12.7615 6.13514 13.09C5.96061 13.6575 5.70307 14.1961 5.37089 14.6883C6.06314 14.8983 6.78239 15.0033 7.50539 15.0003C8.49058 15.001 9.46624 14.8075 10.3765 14.4307C11.2868 14.0539 12.1138 13.5012 12.8102 12.8043C13.5066 12.1075 14.0587 11.2801 14.4348 10.3695C14.811 9.45899 15.0039 8.48319 15.0024 7.49801C15.0015 5.68676 14.3452 3.937 13.1549 2.57184C11.9645 1.20668 10.3204 0.318307 8.52614 0.0707584L8.52464 0.0700085Z" fill="white"/>
</symbol><symbol id="search" viewBox="0 0 14 14">
<path d="M11.0482 10.0737L14 13.0248L13.0248 14L10.0737 11.0482C8.9757 11.9285 7.60993 12.4072 6.20262 12.4052C2.77877 12.4052 0 9.62646 0 6.20262C0 2.77877 2.77877 0 6.20262 0C9.62647 0 12.4052 2.77877 12.4052 6.20262C12.4072 7.60993 11.9285 8.9757 11.0482 10.0737ZM9.66575 9.56237C10.5404 8.66291 11.0289 7.45722 11.0269 6.20262C11.0269 3.53687 8.86768 1.37836 6.20262 1.37836C3.53687 1.37836 1.37836 3.53687 1.37836 6.20262C1.37836 8.86768 3.53687 11.0269 6.20262 11.0269C7.45723 11.0289 8.66292 10.5404 9.56238 9.66575L9.66575 9.56237Z"/>
</symbol><symbol id="twit-mobile" viewBox="0 0 20 18">
<path d="M19.999 2.1368C19.25 2.50356 18.4556 2.74443 17.6423 2.85143C18.4996 2.28389 19.1412 1.39068 19.4476 0.338258C18.6431 0.868262 17.761 1.2397 16.8416 1.44062C16.2241 0.709238 15.4056 0.22418 14.5133 0.0608579C13.621 -0.102464 12.705 0.0651004 11.9076 0.537501C11.1103 1.0099 10.4762 1.76067 10.1041 2.67309C9.73199 3.58551 9.64261 4.60846 9.84988 5.58291C8.21832 5.49239 6.62219 5.02306 5.16512 4.2054C3.70805 3.38774 2.42261 2.24003 1.39227 0.836766C1.02756 1.53017 0.835906 2.31842 0.836931 3.12078C0.836931 4.69559 1.56103 6.08685 2.66189 6.9014C2.01041 6.8787 1.37327 6.68395 0.803571 6.33339V6.38986C0.803768 7.43868 1.13164 8.45516 1.7316 9.26694C2.33156 10.0787 3.16668 10.6358 4.09537 10.8439C3.4906 11.0253 2.85646 11.052 2.24097 10.922C2.50281 11.8248 3.01315 12.6144 3.70054 13.1801C4.38793 13.7459 5.21794 14.0595 6.07437 14.0771C5.2232 14.8171 4.2486 15.3641 3.20632 15.6868C2.16403 16.0096 1.0745 16.1018 0 15.9582C1.87568 17.2934 4.05916 18.0023 6.28925 18C13.8373 18 17.9651 11.0784 17.9651 5.07571C17.9651 4.88022 17.9602 4.68255 17.9523 4.48923C18.7558 3.84646 19.4492 3.05021 20 2.13788L19.999 2.1368Z" fill="white"/>
</symbol><symbol id="twit" viewBox="0 0 15 13">
<path d="M14.9993 1.54324C14.4375 1.80812 13.8417 1.98209 13.2317 2.05937C13.8747 1.64947 14.3559 1.00438 14.5857 0.244297C13.9823 0.627078 13.3207 0.895338 12.6312 1.04045C12.1681 0.512227 11.5542 0.161908 10.885 0.0439529C10.2158 -0.0740019 9.52875 0.047017 8.93073 0.388195C8.33271 0.729374 7.85718 1.2716 7.57809 1.93057C7.29899 2.58954 7.23196 3.32833 7.38741 4.0321C6.16374 3.96673 4.96664 3.62777 3.87384 3.03724C2.78104 2.4467 1.81696 1.6178 1.0442 0.604331C0.770671 1.10512 0.626929 1.67441 0.627698 2.2539C0.627698 3.39126 1.17077 4.39606 1.99642 4.98435C1.50781 4.96795 1.02995 4.8273 0.602679 4.57411V4.6149C0.602826 5.37238 0.848731 6.1065 1.2987 6.69279C1.74867 7.27907 2.37501 7.68144 3.07153 7.83167C2.61795 7.96269 2.14235 7.98201 1.68073 7.88815C1.87711 8.54016 2.25987 9.11038 2.77541 9.51897C3.29095 9.92757 3.91346 10.1541 4.55578 10.1668C3.9174 10.7012 3.18645 11.0963 2.40474 11.3294C1.62303 11.5625 0.805873 11.6291 0 11.5253C1.40676 12.4897 3.04437 13.0017 4.71693 13C10.378 13 13.4738 8.0011 13.4738 3.66579C13.4738 3.5246 13.4701 3.38184 13.4642 3.24222C14.0668 2.778 14.5869 2.20293 15 1.54403L14.9993 1.54324Z" fill="white"/>
</symbol></svg>