<svg xmlns="http://www.w3.org/2000/svg" xmlns:xlink="http://www.w3.org/1999/xlink"><symbol id="logo-mobile" viewBox="0 0 52 52">
<path fill-rule="evenodd" clip-rule="evenodd" d="M7.97819 7.97262L26 0.507744L44.0218 7.97262L51.489 26L44.0218 44.0274L26 51.4923L7.97819 44.0274L0.511004 26L7.97819 7.97262ZM26 0L44.3848 7.61522L52 26L44.3848 44.3848L26 52L7.61522 44.3848L0 26L7.61522 7.61522L26 0ZM22.5075 20.8131C22.0196 20.7119 21.4183 20.6613 20.7036 20.6613C19.535 20.6613 18.4799 20.8862 17.5382 21.3359C16.6079 21.7857 15.8761 22.4209 15.3428 23.2417C14.8096 24.0512 14.543 24.9844 14.543 26.0412C14.543 27.1318 14.8039 28.0987 15.3258 28.942C15.8477 29.7852 16.5738 30.443 17.5041 30.9152C18.4458 31.3761 19.5123 31.6066 20.7036 31.6066C21.3729 31.6066 21.9629 31.5504 22.4735 31.438C22.9953 31.3256 23.5513 31.1288 24.1412 30.8477C24.2093 30.8027 24.2547 30.7634 24.2774 30.7297C24.3001 30.6959 24.3171 30.6116 24.3284 30.4767L24.4986 28.6216C24.4986 28.5878 24.4589 28.571 24.3795 28.571C24.3228 28.571 24.2944 28.5822 24.2944 28.6047C23.9881 29.5266 23.5456 30.2125 22.967 30.6622C22.3884 31.1119 21.6339 31.3368 20.7036 31.3368C19.83 31.3368 19.0188 31.1007 18.27 30.6285C17.5325 30.1563 16.9425 29.5154 16.5001 28.7059C16.0689 27.8851 15.8534 26.9857 15.8534 26.0075C15.8534 24.9844 16.0519 24.0905 16.449 23.326C16.8461 22.5502 17.4077 21.9543 18.1338 21.5383C18.8599 21.1223 19.6995 20.9143 20.6525 20.9143C22.4678 20.9143 23.6364 21.8531 24.1583 23.7307C24.1696 23.7645 24.2036 23.7813 24.2604 23.7813C24.3284 23.7701 24.3625 23.7476 24.3625 23.7139L24.1583 21.707C24.1356 21.572 24.1185 21.4877 24.1072 21.454C24.0959 21.4203 24.0505 21.3809 23.9711 21.3359C23.4832 21.0886 22.9953 20.9143 22.5075 20.8131ZM37.714 31.2862C37.714 31.2187 37.697 31.185 37.663 31.185C37.2318 31.185 36.9142 31.1569 36.71 31.1007C36.5057 31.0445 36.3639 30.9377 36.2845 30.7803C36.2164 30.6116 36.1824 30.3586 36.1824 30.0213V22.2129C36.1824 21.8756 36.2164 21.6283 36.2845 21.4708C36.3639 21.3134 36.5057 21.2066 36.71 21.1504C36.9142 21.083 37.2318 21.0492 37.663 21.0492C37.697 21.0492 37.714 21.0155 37.714 20.948C37.714 20.8806 37.697 20.8468 37.663 20.8468L36.8291 20.8637C36.3526 20.8862 35.9612 20.8974 35.6548 20.8974C35.3145 20.8974 34.8947 20.8862 34.3955 20.8637L33.5956 20.8468C33.5616 20.8468 33.5446 20.8806 33.5446 20.948C33.5446 21.0155 33.5616 21.0492 33.5956 21.0492C34.0381 21.0492 34.3615 21.083 34.5657 21.1504C34.7699 21.2179 34.906 21.3359 34.9741 21.5046C35.0535 21.662 35.0932 21.9093 35.0932 22.2466V25.7208H28.5583V22.2466C28.5583 21.9093 28.5923 21.662 28.6604 21.5046C28.7398 21.3359 28.8816 21.2179 29.0858 21.1504C29.3014 21.083 29.6247 21.0492 30.0559 21.0492C30.0785 21.0492 30.0899 21.0155 30.0899 20.948C30.0899 20.8806 30.0785 20.8468 30.0559 20.8468L29.239 20.8637C28.7398 20.8862 28.3257 20.8974 27.9967 20.8974C27.713 20.8974 27.3329 20.8862 26.8564 20.8637L25.9885 20.8468C25.9658 20.8468 25.9545 20.8806 25.9545 20.948C25.9545 21.0155 25.9658 21.0492 25.9885 21.0492C26.4196 21.0492 26.7373 21.083 26.9415 21.1504C27.1457 21.2066 27.2819 21.3134 27.35 21.4708C27.4294 21.6283 27.4691 21.8756 27.4691 22.2129V30.0213C27.4691 30.3586 27.4294 30.6116 27.35 30.7803C27.2819 30.9377 27.1401 31.0445 26.9245 31.1007C26.7203 31.1569 26.4026 31.185 25.9715 31.185C25.9488 31.185 25.9375 31.2187 25.9375 31.2862C25.9375 31.3537 25.9488 31.3874 25.9715 31.3874C26.3345 31.3874 26.6182 31.3818 26.8224 31.3705L27.9967 31.3537L29.222 31.3705C29.4262 31.3818 29.7041 31.3874 30.0559 31.3874C30.0785 31.3874 30.0899 31.3537 30.0899 31.2862C30.0899 31.2187 30.0785 31.185 30.0559 31.185C29.6134 31.185 29.29 31.1569 29.0858 31.1007C28.8816 31.0445 28.7398 30.9377 28.6604 30.7803C28.5923 30.6116 28.5583 30.3586 28.5583 30.0213V26.075H35.0932V30.0213C35.0932 30.3586 35.0535 30.6116 34.9741 30.7803C34.906 30.9377 34.7699 31.0445 34.5657 31.1007C34.3615 31.1569 34.0381 31.185 33.5956 31.185C33.5616 31.185 33.5446 31.2187 33.5446 31.2862C33.5446 31.3537 33.5616 31.3874 33.5956 31.3874C33.936 31.3874 34.2026 31.3818 34.3955 31.3705L35.6548 31.3537L36.8291 31.3705C37.0333 31.3818 37.3113 31.3874 37.663 31.3874C37.697 31.3874 37.714 31.3537 37.714 31.2862Z" fill="#A87B62"/>
</symbol><symbol id="logo" viewBox="0 0 66 66">
<path fill-rule="evenodd" clip-rule="evenodd" d="M10.1262 10.1191L33 0.644445L55.8738 10.1191L65.3514 33L55.8738 55.8809L33 65.3556L10.1262 55.8809L0.648582 33L10.1262 10.1191ZM33 0L56.3345 9.66548L66 33L56.3345 56.3345L33 66L9.66548 56.3345L0 33L9.66548 9.66548L33 0ZM28.5672 26.4166C27.948 26.2882 27.1848 26.224 26.2776 26.224C24.7944 26.224 23.4552 26.5094 22.26 27.0802C21.0792 27.651 20.1504 28.4573 19.4736 29.499C18.7968 30.5265 18.4584 31.7109 18.4584 33.0523C18.4584 34.4365 18.7896 35.6638 19.452 36.7341C20.1144 37.8043 21.036 38.6391 22.2168 39.2385C23.412 39.8236 24.7656 40.1161 26.2776 40.1161C27.1272 40.1161 27.876 40.0448 28.524 39.9021C29.1864 39.7593 29.892 39.5096 30.6408 39.1529C30.7272 39.0958 30.7848 39.0458 30.8136 39.003C30.8424 38.9602 30.864 38.8532 30.8784 38.6819L31.0944 36.3274C31.0944 36.2845 31.044 36.2631 30.9432 36.2631C30.8712 36.2631 30.8352 36.2774 30.8352 36.3059C30.4464 37.4761 29.8848 38.3466 29.1504 38.9174C28.416 39.4882 27.4584 39.7736 26.2776 39.7736C25.1688 39.7736 24.1392 39.4739 23.1888 38.8746C22.2528 38.2752 21.504 37.4618 20.9424 36.4344C20.3952 35.3926 20.1216 34.251 20.1216 33.0095C20.1216 31.7109 20.3736 30.5764 20.8776 29.6061C21.3816 28.6214 22.0944 27.8651 23.016 27.3371C23.9376 26.8091 25.0032 26.5451 26.2128 26.5451C28.5168 26.5451 30 27.7366 30.6624 30.1198C30.6768 30.1626 30.72 30.184 30.792 30.184C30.8784 30.1697 30.9216 30.1412 30.9216 30.0984L30.6624 27.5511C30.6336 27.3799 30.612 27.2729 30.5976 27.2301C30.5832 27.1872 30.5256 27.1373 30.4248 27.0802C29.8056 26.7663 29.1864 26.5451 28.5672 26.4166ZM47.8678 39.7094C47.8678 39.6238 47.8462 39.581 47.803 39.581C47.2558 39.581 46.8526 39.5453 46.5934 39.4739C46.3342 39.4026 46.1542 39.267 46.0534 39.0672C45.967 38.8532 45.9238 38.5321 45.9238 38.104V28.1933C45.9238 27.7652 45.967 27.4512 46.0534 27.2515C46.1542 27.0517 46.3342 26.9161 46.5934 26.8448C46.8526 26.7591 47.2558 26.7163 47.803 26.7163C47.8462 26.7163 47.8678 26.6735 47.8678 26.5879C47.8678 26.5023 47.8462 26.4595 47.803 26.4595L46.7446 26.4809C46.1398 26.5094 45.643 26.5237 45.2542 26.5237C44.8222 26.5237 44.2894 26.5094 43.6558 26.4809L42.6406 26.4595C42.5974 26.4595 42.5758 26.5023 42.5758 26.5879C42.5758 26.6735 42.5974 26.7163 42.6406 26.7163C43.2022 26.7163 43.6126 26.7591 43.8718 26.8448C44.131 26.9304 44.3038 27.0802 44.3902 27.2943C44.491 27.4941 44.5414 27.808 44.5414 28.2361V32.6456H36.247V28.2361C36.247 27.808 36.2902 27.4941 36.3766 27.2943C36.4774 27.0802 36.6574 26.9304 36.9166 26.8448C37.1902 26.7591 37.6006 26.7163 38.1478 26.7163C38.1766 26.7163 38.191 26.6735 38.191 26.5879C38.191 26.5023 38.1766 26.4595 38.1478 26.4595L37.111 26.4809C36.4774 26.5094 35.9518 26.5237 35.5342 26.5237C35.1742 26.5237 34.6918 26.5094 34.087 26.4809L32.9854 26.4595C32.9566 26.4595 32.9422 26.5023 32.9422 26.5879C32.9422 26.6735 32.9566 26.7163 32.9854 26.7163C33.5326 26.7163 33.9358 26.7591 34.195 26.8448C34.4542 26.9161 34.627 27.0517 34.7134 27.2515C34.8142 27.4512 34.8646 27.7652 34.8646 28.1933V38.104C34.8646 38.5321 34.8142 38.8532 34.7134 39.0672C34.627 39.267 34.447 39.4026 34.1734 39.4739C33.9142 39.5453 33.511 39.581 32.9638 39.581C32.935 39.581 32.9206 39.6238 32.9206 39.7094C32.9206 39.795 32.935 39.8378 32.9638 39.8378C33.4246 39.8378 33.7846 39.8307 34.0438 39.8164L35.5342 39.795L37.0894 39.8164C37.3486 39.8307 37.7014 39.8378 38.1478 39.8378C38.1766 39.8378 38.191 39.795 38.191 39.7094C38.191 39.6238 38.1766 39.581 38.1478 39.581C37.5862 39.581 37.1758 39.5453 36.9166 39.4739C36.6574 39.4026 36.4774 39.267 36.3766 39.0672C36.2902 38.8532 36.247 38.5321 36.247 38.104V33.0951H44.5414V38.104C44.5414 38.5321 44.491 38.8532 44.3902 39.0672C44.3038 39.267 44.131 39.4026 43.8718 39.4739C43.6126 39.5453 43.2022 39.581 42.6406 39.581C42.5974 39.581 42.5758 39.6238 42.5758 39.7094C42.5758 39.795 42.5974 39.8378 42.6406 39.8378C43.0726 39.8378 43.411 39.8307 43.6558 39.8164L45.2542 39.795L46.7446 39.8164C47.0038 39.8307 47.3566 39.8378 47.803 39.8378C47.8462 39.8378 47.8678 39.795 47.8678 39.7094Z" fill="#A87B62"/>
</symbol></svg>